HIERARCHY
ROOT Hips
{
	OFFSET	0.000000	0.000000	0.000000
	CHANNELS 6 Xposition Yposition Zposition Zrotation Xrotation Yrotation
	JOINT LeftHip
	{
		OFFSET	4.740440	-3.195970	-0.322709
		CHANNELS 3 Zrotation Xrotation Yrotation
		JOINT LeftKnee
		{
			OFFSET	-1.605680	-15.592300	1.005510
			CHANNELS 3 Zrotation Xrotation Yrotation
			JOINT LeftAnkle
			{
				OFFSET	-0.632401	-16.421000	-1.413730
				CHANNELS 3 Zrotation Xrotation Yrotation
				End Site
				{
					OFFSET	0.008423	-2.933000	-1.684880
				}
			}
		}
	}
	JOINT RightHip
	{
		OFFSET	-4.740440	-3.195970	-0.322709
		CHANNELS 3 Zrotation Xrotation Yrotation
		JOINT RightKnee
		{
			OFFSET	1.605680	-15.592300	1.005510
			CHANNELS 3 Zrotation Xrotation Yrotation
			JOINT RightAnkle
			{
				OFFSET	0.632401	-16.421000	-1.413730
				CHANNELS 3 Zrotation Xrotation Yrotation
				End Site
				{
					OFFSET	-0.008423	-2.933000	-1.684880
				}
			}
		}
	}
	JOINT Chest
	{
		OFFSET	0.000000	3.468200	0.078401
		CHANNELS 3 Zrotation Xrotation Yrotation
		JOINT LeftCollar
		{
			OFFSET	3.857650	15.070700	-0.011583
			CHANNELS 3 Zrotation Xrotation Yrotation
			JOINT LeftShoulder
			{
				OFFSET	3.979720	-1.940530	-0.165223
				CHANNELS 3 Zrotation Xrotation Yrotation
				JOINT LeftElbow
				{
					OFFSET	0.615844	-10.986600	-0.673886
					CHANNELS 3 Zrotation Xrotation Yrotation
					JOINT LeftWrist
					{
						OFFSET	0.826843	-10.854500	1.034220
						CHANNELS 3 Zrotation Xrotation Yrotation
						End Site
						{
							OFFSET	-1.679080	-8.456540	0.936217
						}
					}
				}
			}
		}
		JOINT RightCollar
		{
			OFFSET	-3.857650	15.070700	-0.011583
			CHANNELS 3 Zrotation Xrotation Yrotation
			JOINT RightShoulder
			{
				OFFSET	-3.979720	-1.940530	-0.165223
				CHANNELS 3 Zrotation Xrotation Yrotation
				JOINT RightElbow
				{
					OFFSET	-0.615845	-10.986600	-0.673886
					CHANNELS 3 Zrotation Xrotation Yrotation
					JOINT RightWrist
					{
						OFFSET	-0.826843	-10.854500	1.034220
						CHANNELS 3 Zrotation Xrotation Yrotation
						End Site
						{
							OFFSET	1.679080	-8.456540	0.936217
						}
					}
				}
			}
		}
		JOINT Neck
		{
			OFFSET	0.000000	15.101400	0.055730
			CHANNELS 3 Zrotation Xrotation Yrotation
			JOINT Head
			{
				OFFSET	0.000000	4.185120	1.488260
				CHANNELS 3 Zrotation Xrotation Yrotation
				End Site
				{
					OFFSET	0.000000	7.773420	-0.106016
				}
			}
		}
	}
}
MOTION
Frames:     10
Frame Time: 0.016667
-140.042908	37.312805	176.044205	173.957733	168.575378	-6.901975	-10.581406	7.106975	-6.723200	-0.386019	4.248734	15.163536	8.898182	1.343609	24.136538	-20.777910	-5.883585	-2.585680	0.985890	21.887781	26.136848	8.179923	-7.722056	-38.973083	-6.693540	8.094083	-1.582013	1.239165	0.886922	8.232751	0.872399	-0.639813	-19.104937	-3.931488	-10.624227	1.972475	16.062691	5.949424	-24.649334	1.399271	2.548548	2.459548	-7.039246	-2.474475	8.719139	4.081922	-6.910025	3.087918	-19.121714	-5.550423	11.855866	-7.506293	6.676007	6.776420	3.587685	9.330988	-2.961944	
-140.042908	37.312805	176.044205	173.957733	168.575378	-6.901975	-10.583412	7.103920	-6.736354	-0.385398	4.251911	15.176998	8.898182	1.343609	24.136538	-20.777910	-5.883585	-2.585680	0.985890	21.887781	26.136848	8.179923	-7.722056	-38.973083	-6.693249	8.086051	-1.592697	1.246712	0.890442	8.235707	0.864689	-0.622923	-19.099180	-3.929183	-10.633045	1.955773	16.062170	5.952475	-24.634665	1.394876	2.549875	2.464424	-7.035502	-2.468180	8.716262	4.083271	-6.909639	3.097378	-19.123571	-5.551811	11.846882	-7.522461	6.685468	6.782443	3.600200	9.326900	-2.954255	
-140.042908	37.312805	176.044205	173.957733	168.575378	-6.901975	-10.585189	7.101233	-6.747946	-0.384842	4.254706	15.188864	8.898182	1.343609	24.136538	-20.777910	-5.883585	-2.585680	0.985890	21.887781	26.136848	8.179923	-7.722056	-38.973083	-6.692450	8.063301	-1.622921	1.266239	0.901490	8.245743	0.844791	-0.585291	-19.083263	-3.921928	-10.653622	1.916311	16.056734	5.954706	-24.607477	1.382765	2.554274	2.478753	-7.025325	-2.450875	8.705939	4.087311	-6.908480	3.125710	-19.128479	-5.555463	11.823313	-7.538572	6.707605	6.819216	3.610806	9.321947	-2.956430	
-140.042908	37.312805	176.044205	173.957733	168.575378	-6.901975	-10.586853	7.098723	-6.758787	-0.384321	4.257320	15.199954	8.898182	1.343609	24.136538	-20.777910	-5.883585	-2.585680	0.985890	21.887781	26.136848	8.179923	-7.722056	-38.973083	-6.695957	8.052207	-1.641212	1.275147	0.909620	8.258733	0.839361	-0.580906	-19.077879	-3.922101	-10.653558	1.914610	16.055414	5.954016	-24.619469	1.382159	2.559940	2.492486	-7.022151	-2.445435	8.702112	4.088669	-6.908089	3.135200	-19.131269	-5.557549	11.809846	-7.537781	6.716235	6.839445	3.610806	9.321947	-2.956430	
-140.042908	37.312805	176.044205	173.957733	168.575378	-6.901975	-10.588461	7.096297	-6.769245	-0.383817	4.259845	15.210659	8.898182	1.343609	24.136538	-20.777910	-5.883585	-2.585680	0.985890	21.887781	26.136848	8.179923	-7.722056	-38.973083	-6.704245	8.045680	-1.657605	1.302381	0.905599	8.258311	0.821851	-0.566794	-19.060566	-3.922101	-10.653558	1.914610	16.052498	5.955295	-24.657963	1.381090	2.550216	2.496338	-7.013215	-2.429985	8.689756	4.092721	-6.906929	3.163567	-19.131523	-5.557726	11.808914	-7.531921	6.720634	6.857859	3.610806	9.321947	-2.956430	
-140.042908	37.312805	176.044205	173.957733	168.575378	-6.901975	-10.589205	7.095170	-6.774079	-0.383583	4.261018	15.215608	8.898182	1.343609	24.136538	-20.777910	-5.883585	-2.585680	0.985890	21.887781	26.136848	8.179923	-7.722056	-38.973083	-6.708305	8.042482	-1.665612	1.313233	0.905061	8.260352	0.815508	-0.561688	-19.054293	-3.922101	-10.653558	1.914610	16.051538	5.955732	-24.670673	1.382108	2.548584	2.500701	-7.010497	-2.425269	8.685600	4.094008	-6.906560	3.172611	-19.131523	-5.557726	11.808914	-7.529047	6.722795	6.866857	3.603586	9.321896	-2.949232	
-140.042908	37.312805	176.044205	173.957733	168.575378	-6.901975	-10.589296	7.094951	-6.774740	-0.383570	4.261241	15.216284	8.898182	1.343609	24.136538	-20.777910	-5.883585	-2.585680	0.985890	21.887781	26.136848	8.179923	-7.722056	-38.973083	-6.719972	8.033303	-1.688665	1.344726	0.903345	8.265992	0.794590	-0.550902	-19.064692	-3.915732	-10.650855	1.944026	16.048519	5.957181	-24.710922	1.385240	2.544307	2.513669	-7.002912	-2.412119	8.675014	4.097468	-6.905568	3.196788	-19.131523	-5.557726	11.808914	-7.549601	6.739199	6.907181	3.624280	9.307600	-2.951399	
-140.042908	37.312805	176.044205	173.957733	168.575378	-6.901975	-10.589296	7.094951	-6.774740	-0.383570	4.261241	15.216284	8.898182	1.343609	24.136538	-20.777910	-5.883585	-2.585680	0.985890	21.887781	26.136848	8.179923	-7.722056	-38.973083	-6.723807	8.030289	-1.696243	1.349238	0.906080	8.273217	0.793013	-0.551513	-19.073231	-3.913692	-10.649997	1.953600	16.047411	5.957711	-24.725496	1.388289	2.547018	2.521222	-7.002762	-2.411407	8.668519	4.098493	-6.905272	3.203903	-19.131523	-5.557726	11.808914	-7.557914	6.745163	6.921227	3.626968	9.302060	-2.947030	
-140.042908	37.312805	176.044205	173.957733	168.575378	-6.901975	-10.589296	7.094951	-6.774740	-0.383570	4.261241	15.216284	8.898182	1.343609	24.136538	-20.777910	-5.883585	-2.585680	0.985890	21.887781	26.136848	8.179923	-7.722056	-38.973083	-6.734358	8.021997	-1.717080	1.370520	0.908714	8.284842	0.780653	-0.547015	-19.089195	-3.907673	-10.643028	1.971041	16.079151	5.952063	-24.763571	1.397501	2.556158	2.543337	-7.003261	-2.410916	8.649967	4.101156	-6.904507	3.222562	-19.131523	-5.557726	11.808914	-7.592446	6.744895	6.966875	3.645426	9.301542	-2.938136	
-140.042908	37.312805	176.044205	173.957733	168.575378	-6.901975	-10.589296	7.094951	-6.774740	-0.383570	4.261241	15.216284	8.898182	1.343609	24.136538	-20.777910	-5.883585	-2.585680	0.985890	21.887781	26.136848	8.179923	-7.722056	-38.973083	-6.737669	8.019395	-1.723617	1.379834	0.908033	8.286107	0.774382	-0.543740	-19.092239	-3.905572	-10.636956	1.969234	16.090107	5.948389	-24.767010	1.400390	2.559029	2.550275	-7.003403	-2.410770	8.644514	4.101933	-6.904282	3.228046	-19.131523	-5.557726	11.808914	-7.608125	6.740787	6.983947	3.664067	9.304683	-2.944959	
